<svg xmlns="http://www.w3.org/2000/svg" xmlns:xlink="http://www.w3.org/1999/xlink" contentStyleType="text/css" data-diagram-type="DESCRIPTION" height="241px" preserveAspectRatio="none" style="width:871px;height:241px;background:#FFFFFF;" version="1.1" viewBox="0 0 871 241" width="871px" zoomAndPan="magnify"><?plantuml 1.2026.6?><defs/><g><g class="title" data-source-line="26"><text fill="#000000" font-family="'Segoe UI'" font-size="14" font-weight="700" lengthAdjust="spacing" textLength="252.5742" x="305.7129" y="25.1074">Breezy &#8212; Composants (vue simplifi&#233;e)</text></g><!--entity client--><g class="entity" data-qualified-name="client" data-source-line="28" id="ent0001"><ellipse cx="23.7188" cy="60.1211" fill="#F1F1F1" rx="8" ry="8" style="stroke:#181818;stroke-width:0.5;"/><path d="M23.7188,68.1211 L23.7188,95.1211 M10.7188,76.1211 L36.7188,76.1211 M23.7188,95.1211 L10.7188,110.1211 M23.7188,95.1211 L36.7188,110.1211" fill="none" style="stroke:#181818;stroke-width:0.5;"/><text fill="#000000" font-family="'Segoe UI'" font-size="14" lengthAdjust="spacing" textLength="35.4375" x="6" y="126.7285">Client</text></g><!--entity gateway--><g class="entity" data-qualified-name="gateway" data-source-line="30" id="ent0002"><rect fill="#E8F4FD" height="67.2422" rx="2.5" ry="2.5" style="stroke:#1976D2;stroke-width:0.5;" width="144.7539" x="196" y="57.6211"/><rect fill="#E8F4FD" height="10" style="stroke:#1976D2;stroke-width:0.5;" width="15" x="320.7539" y="62.6211"/><rect fill="#E8F4FD" height="2" style="stroke:#1976D2;stroke-width:0.5;" width="4" x="318.7539" y="64.6211"/><rect fill="#E8F4FD" height="2" style="stroke:#1976D2;stroke-width:0.5;" width="4" x="318.7539" y="68.6211"/><text fill="#000000" font-family="'Segoe UI'" font-size="14" font-weight="700" lengthAdjust="spacing" textLength="104.7539" x="211" y="92.7285">breezy-gateway</text><text fill="#000000" font-family="'Segoe UI'" font-size="14" font-weight="700" lengthAdjust="spacing" textLength="98.4648" x="211" y="111.3496">&#171;API gateway&#187;</text></g><!--entity auth--><g class="entity" data-qualified-name="auth" data-source-line="31" id="ent0003"><rect fill="#E8F4FD" height="67.2422" rx="2.5" ry="2.5" style="stroke:#1976D2;stroke-width:0.5;" width="119.1807" x="59" y="57.6211"/><rect fill="#E8F4FD" height="10" style="stroke:#1976D2;stroke-width:0.5;" width="15" x="158.1807" y="62.6211"/><rect fill="#E8F4FD" height="2" style="stroke:#1976D2;stroke-width:0.5;" width="4" x="156.1807" y="64.6211"/><rect fill="#E8F4FD" height="2" style="stroke:#1976D2;stroke-width:0.5;" width="4" x="156.1807" y="68.6211"/><text fill="#000000" font-family="'Segoe UI'" font-size="14" font-weight="700" lengthAdjust="spacing" textLength="79.1807" x="74" y="92.7285">breezy-auth</text><text fill="#000000" font-family="'Segoe UI'" font-size="14" font-weight="700" lengthAdjust="spacing" textLength="61.4346" x="74" y="111.3496">&#171;service&#187;</text></g><!--entity user--><g class="entity" data-qualified-name="user" data-source-line="32" id="ent0004"><rect fill="#E8F4FD" height="67.2422" rx="2.5" ry="2.5" style="stroke:#1976D2;stroke-width:0.5;" width="117.0752" x="359" y="57.6211"/><rect fill="#E8F4FD" height="10" style="stroke:#1976D2;stroke-width:0.5;" width="15" x="456.0752" y="62.6211"/><rect fill="#E8F4FD" height="2" style="stroke:#1976D2;stroke-width:0.5;" width="4" x="454.0752" y="64.6211"/><rect fill="#E8F4FD" height="2" style="stroke:#1976D2;stroke-width:0.5;" width="4" x="454.0752" y="68.6211"/><text fill="#000000" font-family="'Segoe UI'" font-size="14" font-weight="700" lengthAdjust="spacing" textLength="77.0752" x="374" y="92.7285">breezy-user</text><text fill="#000000" font-family="'Segoe UI'" font-size="14" font-weight="700" lengthAdjust="spacing" textLength="61.4346" x="374" y="111.3496">&#171;service&#187;</text></g><!--entity post--><g class="entity" data-qualified-name="post" data-source-line="33" id="ent0005"><rect fill="#E8F4FD" height="67.2422" rx="2.5" ry="2.5" style="stroke:#1976D2;stroke-width:0.5;" width="118.1484" x="494.5" y="57.6211"/><rect fill="#E8F4FD" height="10" style="stroke:#1976D2;stroke-width:0.5;" width="15" x="592.6484" y="62.6211"/><rect fill="#E8F4FD" height="2" style="stroke:#1976D2;stroke-width:0.5;" width="4" x="590.6484" y="64.6211"/><rect fill="#E8F4FD" height="2" style="stroke:#1976D2;stroke-width:0.5;" width="4" x="590.6484" y="68.6211"/><text fill="#000000" font-family="'Segoe UI'" font-size="14" font-weight="700" lengthAdjust="spacing" textLength="78.1484" x="509.5" y="92.7285">breezy-post</text><text fill="#000000" font-family="'Segoe UI'" font-size="14" font-weight="700" lengthAdjust="spacing" textLength="61.4346" x="509.5" y="111.3496">&#171;service&#187;</text></g><!--entity profil--><g class="entity" data-qualified-name="profil" data-source-line="34" id="ent0006"><rect fill="#E8F4FD" height="67.2422" rx="2.5" ry="2.5" style="stroke:#1976D2;stroke-width:0.5;" width="125.4355" x="701" y="57.6211"/><rect fill="#E8F4FD" height="10" style="stroke:#1976D2;stroke-width:0.5;" width="15" x="806.4355" y="62.6211"/><rect fill="#E8F4FD" height="2" style="stroke:#1976D2;stroke-width:0.5;" width="4" x="804.4355" y="64.6211"/><rect fill="#E8F4FD" height="2" style="stroke:#1976D2;stroke-width:0.5;" width="4" x="804.4355" y="68.6211"/><text fill="#000000" font-family="'Segoe UI'" font-size="14" font-weight="700" lengthAdjust="spacing" textLength="85.4355" x="716" y="92.7285">breezy-profil</text><text fill="#000000" font-family="'Segoe UI'" font-size="14" font-weight="700" lengthAdjust="spacing" textLength="61.4346" x="716" y="111.3496">&#171;service&#187;</text></g><!--entity pgauth--><g class="entity" data-qualified-name="pgauth" data-source-line="36" id="ent0007"><path d="M81,197.6211 C81,187.6211 115.4966,187.6211 115.4966,187.6211 C115.4966,187.6211 149.9932,187.6211 149.9932,197.6211 L149.9932,225.2422 C149.9932,235.2422 115.4966,235.2422 115.4966,235.2422 C115.4966,235.2422 81,235.2422 81,225.2422 L81,197.6211" fill="#FFF3E0" style="stroke:#FB8C00;stroke-width:0.5;"/><path d="M81,197.6211 C81,207.6211 115.4966,207.6211 115.4966,207.6211 C115.4966,207.6211 149.9932,207.6211 149.9932,197.6211" fill="none" style="stroke:#FB8C00;stroke-width:0.5;"/><text fill="#000000" font-family="'Segoe UI'" font-size="14" lengthAdjust="spacing" textLength="48.9932" x="91" y="226.7285">PG auth</text></g><!--entity pgusers--><g class="entity" data-qualified-name="pgusers" data-source-line="37" id="ent0008"><path d="M348,197.6211 C348,187.6211 384.6362,187.6211 384.6362,187.6211 C384.6362,187.6211 421.2725,187.6211 421.2725,197.6211 L421.2725,225.2422 C421.2725,235.2422 384.6362,235.2422 384.6362,235.2422 C384.6362,235.2422 348,235.2422 348,225.2422 L348,197.6211" fill="#FFF3E0" style="stroke:#FB8C00;stroke-width:0.5;"/><path d="M348,197.6211 C348,207.6211 384.6362,207.6211 384.6362,207.6211 C384.6362,207.6211 421.2725,207.6211 421.2725,197.6211" fill="none" style="stroke:#FB8C00;stroke-width:0.5;"/><text fill="#000000" font-family="'Segoe UI'" font-size="14" lengthAdjust="spacing" textLength="53.2725" x="358" y="226.7285">PG users</text></g><!--entity mongoposts--><g class="entity" data-qualified-name="mongoposts" data-source-line="38" id="ent0009"><path d="M475.5,197.6211 C475.5,187.6211 526.519,187.6211 526.519,187.6211 C526.519,187.6211 577.5381,187.6211 577.5381,197.6211 L577.5381,225.2422 C577.5381,235.2422 526.519,235.2422 526.519,235.2422 C526.519,235.2422 475.5,235.2422 475.5,225.2422 L475.5,197.6211" fill="#FFF3E0" style="stroke:#FB8C00;stroke-width:0.5;"/><path d="M475.5,197.6211 C475.5,207.6211 526.519,207.6211 526.519,207.6211 C526.519,207.6211 577.5381,207.6211 577.5381,197.6211" fill="none" style="stroke:#FB8C00;stroke-width:0.5;"/><text fill="#000000" font-family="'Segoe UI'" font-size="14" lengthAdjust="spacing" textLength="82.0381" x="485.5" y="226.7285">Mongo posts</text></g><!--entity mongoprofils--><g class="entity" data-qualified-name="mongoprofils" data-source-line="39" id="ent0010"><path d="M748,197.6211 C748,187.6211 801.6919,187.6211 801.6919,187.6211 C801.6919,187.6211 855.3838,187.6211 855.3838,197.6211 L855.3838,225.2422 C855.3838,235.2422 801.6919,235.2422 801.6919,235.2422 C801.6919,235.2422 748,235.2422 748,225.2422 L748,197.6211" fill="#FFF3E0" style="stroke:#FB8C00;stroke-width:0.5;"/><path d="M748,197.6211 C748,207.6211 801.6919,207.6211 801.6919,207.6211 C801.6919,207.6211 855.3838,207.6211 855.3838,197.6211" fill="none" style="stroke:#FB8C00;stroke-width:0.5;"/><text fill="#000000" font-family="'Segoe UI'" font-size="14" lengthAdjust="spacing" textLength="87.3838" x="758" y="226.7285">Mongo profils</text></g><!--entity IApi--><g class="entity" data-qualified-name="IApi" data-source-line="42" id="ent0011"><ellipse cx="38.5" cy="208.6211" fill="#FFFFFF" rx="8" ry="8" style="stroke:#1976D2;stroke-width:0.5;"/><text fill="#000000" font-family="'Segoe UI'" font-size="14" lengthAdjust="spacing" textLength="24.377" x="26.3115" y="240.7285">IApi</text></g><!--entity IAuth--><g class="entity" data-qualified-name="IAuth" data-source-line="43" id="ent0012"><ellipse cx="306.5" cy="208.6211" fill="#FFFFFF" rx="8" ry="8" style="stroke:#1976D2;stroke-width:0.5;"/><text fill="#000000" font-family="'Segoe UI'" font-size="14" lengthAdjust="spacing" textLength="33.3457" x="289.8271" y="240.7285">IAuth</text></g><!--entity IUser--><g class="entity" data-qualified-name="IUser" data-source-line="44" id="ent0013"><ellipse cx="229.5" cy="208.6211" fill="#FFFFFF" rx="8" ry="8" style="stroke:#1976D2;stroke-width:0.5;"/><text fill="#000000" font-family="'Segoe UI'" font-size="14" lengthAdjust="spacing" textLength="31.4727" x="213.7637" y="240.7285">IUser</text></g><!--entity IPost--><g class="entity" data-qualified-name="IPost" data-source-line="45" id="ent0014"><ellipse cx="448.5" cy="208.6211" fill="#FFFFFF" rx="8" ry="8" style="stroke:#1976D2;stroke-width:0.5;"/><text fill="#000000" font-family="'Segoe UI'" font-size="14" lengthAdjust="spacing" textLength="30.4541" x="433.2729" y="240.7285">IPost</text></g><!--entity IProfil--><g class="entity" data-qualified-name="IProfil" data-source-line="46" id="ent0015"><ellipse cx="611.5" cy="208.6211" fill="#FFFFFF" rx="8" ry="8" style="stroke:#1976D2;stroke-width:0.5;"/><text fill="#000000" font-family="'Segoe UI'" font-size="14" lengthAdjust="spacing" textLength="35.7998" x="593.6001" y="240.7285">IProfil</text></g><!--entity INotify--><g class="entity" data-qualified-name="INotify" data-source-line="47" id="ent0016"><ellipse cx="660.5" cy="208.6211" fill="#FFFFFF" rx="8" ry="8" style="stroke:#1976D2;stroke-width:0.5;"/><text fill="#000000" font-family="'Segoe UI'" font-size="14" lengthAdjust="spacing" textLength="41.6924" x="639.6538" y="240.7285">INotify</text></g><g class="link" data-entity-1="ent0002" data-entity-2="ent0011" data-link-type="association" id="lnk17"><path d="M239.0568,124.8091 C222.7805,140.8316 201.273,158.9337 178.5,169.6211 C134.8446,190.1085 116.1451,169.3907 71.5,187.6211 C62.7074,191.2115 53.9434,197.4783 47.6592,202.5645" fill="none" style="stroke:#555555;stroke-width:1;"/></g><g class="link" data-entity-1="ent0003" data-entity-2="ent0012" data-link-type="association" id="lnk18"><path d="M175.4945,124.7311 C179.2055,126.7487 182.8975,128.7273 186.5,130.6211 C202.6869,139.1302 207.8828,139.1067 223.5,148.6211 C251.7626,165.8394 282.2757,190.3357 297.2036,202.7529" fill="none" style="stroke:#555555;stroke-width:1;"/></g><g class="link" data-entity-1="ent0004" data-entity-2="ent0013" data-link-type="association" id="lnk19"><path d="M360.5055,124.7311 C356.7945,126.7487 353.1025,128.7273 349.5,130.6211 C333.3131,139.1302 328.1172,139.1067 312.5,148.6211 C284.2374,165.8394 253.7243,190.3357 238.7964,202.7529" fill="none" style="stroke:#555555;stroke-width:1;"/></g><g class="link" data-entity-1="ent0005" data-entity-2="ent0014" data-link-type="association" id="lnk20"><path d="M522.6835,124.7255 C505.7584,142.9338 484.592,166.2047 466.5,187.6211 C463.3587,191.3396 460.0422,195.5035 457.1235,199.256" fill="none" style="stroke:#555555;stroke-width:1;"/></g><g class="link" data-entity-1="ent0006" data-entity-2="ent0015" data-link-type="association" id="lnk21"><path d="M757.0801,124.7069 C752.3249,140.5 744.2032,158.426 730.5,169.6211 C699.5846,194.8781 678.9507,171.3414 642.5,187.6211 C634.423,191.2285 626.4335,197.2307 620.5886,202.199" fill="none" style="stroke:#555555;stroke-width:1;"/></g><g class="link" data-entity-1="ent0006" data-entity-2="ent0016" data-link-type="association" id="lnk22"><path d="M770.8462,124.7518 C772.3556,139.6255 771.3231,156.7451 762.5,169.6211 C751.442,185.7584 692.6865,202.3421 669.715,208.3092" fill="none" style="stroke:#555555;stroke-width:1;"/></g><g class="link" data-entity-1="ent0001" data-entity-2="ent0011" data-link-type="dependency" id="lnk23"><polygon fill="#555555" points="37.0749,199.3627,39.913,189.9317,36.447,194.4023,31.9763,190.9363,37.0749,199.3627" style="stroke:#555555;stroke-width:1;stroke-linejoin:miter;stroke-miterlimit:10;"/><path d="M28.4116,130.9224 C31.4362,154.8171 34.4731,178.8089 36.447,194.4023" fill="none" style="stroke:#555555;stroke-width:1;stroke-dasharray:7,7;"/></g><g class="link" data-entity-1="ent0002" data-entity-2="ent0012" data-link-type="dependency" id="lnk24"><polygon fill="#555555" points="302.9363,199.5079,303.997,189.7163,301.4095,194.7467,296.3791,192.1592,302.9363,199.5079" style="stroke:#555555;stroke-width:1;stroke-linejoin:miter;stroke-miterlimit:10;"/><path d="M278.9843,124.8154 C286.9807,149.7518 295.9878,177.8395 301.4095,194.7467" fill="none" style="stroke:#555555;stroke-width:1;stroke-dasharray:7,7;"/></g><g class="link" data-entity-1="ent0002" data-entity-2="ent0013" data-link-type="dependency" id="lnk25"><polygon fill="#555555" points="228.0708,199.341,231.205,190.0041,227.5997,194.3632,223.2406,190.7579,228.0708,199.341" style="stroke:#555555;stroke-width:1;stroke-linejoin:miter;stroke-miterlimit:10;"/><path d="M242.951,124.6424 C238.3083,132.1362 234.114,140.3476 231.5,148.6211 C226.1142,165.6679 226.4011,181.6986 227.5997,194.3632" fill="none" style="stroke:#555555;stroke-width:1;stroke-dasharray:7,7;"/></g><g class="link" data-entity-1="ent0002" data-entity-2="ent0014" data-link-type="dependency" id="lnk26"><polygon fill="#555555" points="443.6923,199.293,443.5256,189.4456,441.5846,194.759,436.2712,192.8179,443.6923,199.293" style="stroke:#555555;stroke-width:1;stroke-linejoin:miter;stroke-miterlimit:10;"/><path d="M335.3699,124.7774 C340.1203,126.8276 344.8634,128.7971 349.5,130.6211 C374.2224,140.3465 385.2012,132.7422 406.5,148.6211 C424.428,161.9869 435.117,180.8462 441.5846,194.759" fill="none" style="stroke:#555555;stroke-width:1;stroke-dasharray:7,7;"/></g><g class="link" data-entity-1="ent0002" data-entity-2="ent0015" data-link-type="dependency" id="lnk27"><polygon fill="#555555" points="602.1877,199.951,598.6947,190.7424,598.6686,196.3992,593.0118,196.373,602.1877,199.951" style="stroke:#555555;stroke-width:1;stroke-linejoin:miter;stroke-miterlimit:10;"/><path d="M333.85,124.6972 C339.0882,126.842 344.3466,128.8491 349.5,130.6211 C384.3741,142.6125 394.6084,140.1482 430.5,148.6211 C465.2777,156.831 555.0448,170.6664 586.5,187.6211 C592.3145,190.7552 594.3073,191.9975 598.6686,196.3992" fill="none" style="stroke:#555555;stroke-width:1;stroke-dasharray:7,7;"/></g><g class="link" data-entity-1="ent0003" data-entity-2="ent0013" data-link-type="dependency" id="lnk28"><polygon fill="#555555" points="220.3611,200.8647,217.1277,191.5618,216.943,197.2156,211.2891,197.0308,220.3611,200.8647" style="stroke:#555555;stroke-width:1;stroke-linejoin:miter;stroke-miterlimit:10;"/><path d="M149.1251,124.8154 C173.1249,150.4368 201.5311,180.7624 216.943,197.2156" fill="none" style="stroke:#555555;stroke-width:1;stroke-dasharray:7,7;"/><text fill="#000000" font-family="'Segoe UI'" font-size="13" lengthAdjust="spacing" textLength="25.1685" x="192.5" y="164.6494">sync</text></g><g class="link" data-entity-1="ent0004" data-entity-2="ent0012" data-link-type="dependency" id="lnk29"><polygon fill="#555555" points="307.7451,199.4594,313.0238,191.1446,308.4796,194.5137,305.1105,189.9695,307.7451,199.4594" style="stroke:#555555;stroke-width:1;stroke-linejoin:miter;stroke-miterlimit:10;"/><path d="M361.7491,124.6523 C344.6084,135.0616 329.4352,144.8671 326.5,148.6211 C314.6569,163.7678 310.4578,181.1927 308.4796,194.5137" fill="none" style="stroke:#555555;stroke-width:1;stroke-dasharray:7,7;"/><text fill="#000000" font-family="'Segoe UI'" font-size="13" lengthAdjust="spacing" textLength="21.6138" x="328.5" y="164.6494">ban</text></g><g class="link" data-entity-1="ent0004" data-entity-2="ent0016" data-link-type="dependency" id="lnk30"><polygon fill="#555555" points="651.244,203.2248,646.5907,194.5445,647.2955,200.1573,641.6827,200.8621,651.244,203.2248" style="stroke:#555555;stroke-width:1;stroke-linejoin:miter;stroke-miterlimit:10;"/><path d="M471.695,124.7982 C476.2821,126.9483 480.9193,128.9272 485.5,130.6211 C524.5779,145.0717 541.2253,128.126 577.5,148.6211 C588.4584,154.8125 586.6138,161.8312 596.5,169.6211 C609.6224,179.961 615.4242,178.6221 629.5,187.6211 C637.0659,192.4582 641.2564,195.4656 647.2955,200.1573" fill="none" style="stroke:#555555;stroke-width:1;stroke-dasharray:7,7;"/><text fill="#000000" font-family="'Segoe UI'" font-size="13" lengthAdjust="spacing" textLength="34.9946" x="598.5" y="164.6494">follow</text></g><g class="link" data-entity-1="ent0005" data-entity-2="ent0013" data-link-type="dependency" id="lnk31"><polygon fill="#555555" points="238.6002,206.7675,248.4465,206.9932,243.2146,204.842,245.3658,199.6101,238.6002,206.7675" style="stroke:#555555;stroke-width:1;stroke-linejoin:miter;stroke-miterlimit:10;"/><path d="M497.5315,124.6948 C493.1769,126.8136 488.8011,128.8173 484.5,130.6211 C442.6694,148.1635 331.4854,173.1371 288.5,187.6211 C270.5805,193.6591 254.7212,200.0407 243.2146,204.842" fill="none" style="stroke:#555555;stroke-width:1;stroke-dasharray:7,7;"/><text fill="#000000" font-family="'Segoe UI'" font-size="13" lengthAdjust="spacing" textLength="25.3208" x="430.5" y="164.6494">feed</text></g><g class="link" data-entity-1="ent0005" data-entity-2="ent0016" data-link-type="dependency" id="lnk32"><polygon fill="#555555" points="658.7635,199.5141,661.0018,189.923,657.8243,194.6031,653.1442,191.4256,658.7635,199.5141" style="stroke:#555555;stroke-width:1;stroke-linejoin:miter;stroke-miterlimit:10;"/><path d="M612.5756,124.0542 C622.1716,131.179 631.306,139.4006 638.5,148.6211 C650.4439,163.9294 655.2872,181.336 657.8243,194.6031" fill="none" style="stroke:#555555;stroke-width:1;stroke-dasharray:7,7;"/><text fill="#000000" font-family="'Segoe UI'" font-size="13" lengthAdjust="spacing" textLength="72.5029" x="652.5" y="164.6494">like/mention</text></g><g class="link" data-entity-1="ent0006" data-entity-2="ent0012" data-link-type="dependency" id="lnk33"><polygon fill="#555555" points="315.5849,202.2707,325.0509,199.5511,319.4156,199.0573,319.9094,193.422,315.5849,202.2707" style="stroke:#555555;stroke-width:1;stroke-linejoin:miter;stroke-miterlimit:10;"/><path d="M700.6805,109.5324 C676.0307,116.265 647.475,123.9419 621.5,130.6211 C588.7185,139.0505 580.3853,140.6065 547.5,148.6211 C509.2736,157.9374 500.1192,162.0975 461.5,169.6211 C407.2706,180.1858 389.7201,166.91 338.5,187.6211 C330.0007,191.0578 325.4622,193.985 319.4156,199.0573" fill="none" style="stroke:#555555;stroke-width:1;stroke-dasharray:7,7;"/><text fill="#000000" font-family="'Segoe UI'" font-size="13" lengthAdjust="spacing" textLength="22.0835" x="549.5" y="164.6494">r&#244;le</text></g><g class="link" data-entity-1="ent0003" data-entity-2="ent0007" data-link-type="dependency" id="lnk34"><polygon fill="#555555" points="116.0874,187.4202,120.3139,178.5243,116.2139,182.4218,112.3164,178.3218,116.0874,187.4202" style="stroke:#555555;stroke-width:1;stroke-linejoin:miter;stroke-miterlimit:10;"/><path d="M117.6723,124.8154 C117.1693,144.6823 116.6658,164.5732 116.2139,182.4218" fill="none" style="stroke:#555555;stroke-width:1;stroke-dasharray:7,7;"/></g><g class="link" data-entity-1="ent0004" data-entity-2="ent0008" data-link-type="dependency" id="lnk35"><polygon fill="#555555" points="396.4095,187.6155,403.7876,181.0915,398.4872,183.0676,396.511,177.7672,396.4095,187.6155" style="stroke:#555555;stroke-width:1;stroke-linejoin:miter;stroke-miterlimit:10;"/><path d="M413.4588,124.9988 C411.2582,138.9559 408.0355,155.2814 403.5,169.6211 C401.6073,175.6051 401.1198,177.3051 398.4872,183.0676" fill="none" style="stroke:#555555;stroke-width:1;stroke-dasharray:7,7;"/></g><g class="link" data-entity-1="ent0005" data-entity-2="ent0009" data-link-type="dependency" id="lnk36"><polygon fill="#555555" points="525.1587,187.3862,529.0406,178.3347,525.0933,182.3867,521.0413,178.4393,525.1587,187.3862" style="stroke:#555555;stroke-width:1;stroke-linejoin:miter;stroke-miterlimit:10;"/><path d="M536.4925,124.8513 C533.2545,132.4651 530.3141,140.6735 528.5,148.6211 C525.6241,161.2204 524.9395,170.6314 525.0933,182.3867" fill="none" style="stroke:#555555;stroke-width:1;stroke-dasharray:7,7;"/></g><g class="link" data-entity-1="ent0006" data-entity-2="ent0010" data-link-type="dependency" id="lnk37"><polygon fill="#555555" points="797.2849,187.3894,799.4103,177.7726,796.2881,182.4898,791.5709,179.3675,797.2849,187.3894" style="stroke:#555555;stroke-width:1;stroke-linejoin:miter;stroke-miterlimit:10;"/><path d="M778.5991,124.906 C781.8074,132.5874 784.9819,140.8109 787.5,148.6211 C791.5633,161.2241 793.8966,170.7353 796.2881,182.4898" fill="none" style="stroke:#555555;stroke-width:1;stroke-dasharray:7,7;"/></g><?plantuml-src hLMzRjim4Dxv55Tri3tajtzfa1f8xBema0G6WcnTQ8bo25EaIr8ntA90rg9hW3v3qBL0Xcxsc-H9oYEbM7ALBO87yhllxhuxdSwj3y_oa1R0YMRiwm8URcwXp-b4qonZa328LJPJXafhuFBi52w6PwFJuM2u-W5jetBB99Knws24SsMfvKg2L3gZWflL7OD3I5Mk9MVG7bCXuE7s1d-_VdPW1pJxadF3C58yPHQMzylxBYn_vuOj_tQsIUkPodinqtIIKH1quII3oPYbaX9YfbpEg2iLnZIUJhJAPT9JGccONt7BAdPpHHCrvt82AHMcQabOIdDX1qhQS-fQ5bsmYM9mEOmg9Dz4oQIzi0l18C_4VfCLlX7t8ZQalFnuC7WzwAD5wOJf0jrx_-vjVz-Xc3c47IkHaE-Lm5nQfbCQi-R00_yy4RWQ9w6MZgbvEiohZxkROGOd1xtTtLgOOwtLl32_yGyXbbkdl39ylVMyjQzp1ePdCy5JxeQfGmYDhVFk2OxTeWPYVo9atS9ex6DjJQXbSxhuB8-EZaT3AAxTReHknQt1ZURs2dqCqzSyPiW7z42yWUucLJVH4M-Wkyfi4ntn9hfMAHSR3aZtE26FxoKQVV8ACLmHSU8LrnWeoaHhXhzNA6TAJfJNWYn7oH3mz_zPNeA9rhG04BS9XkNOcVBZD-7hxv1s1wBXyOnxFpmKYDVk8LJjiKkdBc1u2jZ8QGaOdWhC9oxGq1YFktN4qqN0mvcGuht3rbP8ZZt2TlWxPiQMb81FYzMNWCyPwYo0aAuAbPbQq5_TpPXCS3sQSjEPzQehbXm94mpRszqWgPGO0DHKGxoe6k9LrP5YF8hg7lsmZaCm2ncNTJuc2QOnbJLBA0Ry4XT2pSjkR4HC6KjgfhMVu5Esaxa2tVz2sQUDf7hrHp1isCXD8pSM6mRjFV3JvXO75BFVgTPJZ7T5R3dE5HsLyQsahathFm00?></g></svg>